<?xml version="1.0" standalone="no"?>
<!DOCTYPE svg PUBLIC "-//W3C//DTD SVG 20010904//EN"
 "http://www.w3.org/TR/2001/REC-SVG-20010904/DTD/svg10.dtd">
<svg version="1.0" xmlns="http://www.w3.org/2000/svg"
 width="500.000000pt" height="500.000000pt" viewBox="0 0 500.000000 500.000000"
 preserveAspectRatio="xMidYMid meet">
<metadata>
Created by potrace 1.11, written by Peter Selinger 2001-2013
</metadata>
<g transform="translate(0.000000,500.000000) scale(0.100000,-0.100000)"
fill="#000000" stroke="none">
<path d="M2667 4579 c-154 -37 -314 -144 -387 -258 -42 -67 -83 -166 -190
-462 -50 -138 -101 -271 -114 -298 -28 -55 -75 -99 -177 -169 -93 -63 -163
-137 -196 -208 -22 -49 -25 -66 -20 -133 4 -62 12 -92 46 -162 22 -48 41 -93
41 -100 0 -8 -31 -42 -69 -76 -91 -82 -126 -150 -118 -228 7 -65 49 -148 92
-180 49 -37 149 -83 227 -105 169 -47 507 -47 751 0 315 61 475 149 550 303
39 81 45 128 30 227 -17 111 -9 212 22 265 31 54 50 68 116 88 99 30 172 117
214 257 24 81 29 246 12 365 -13 88 -13 102 0 117 20 23 19 203 -1 280 -45
166 -181 347 -326 431 -117 67 -336 87 -503 46z m626 -411 l97 -111 -21 -24
c-27 -28 -18 -41 17 -23 33 18 39 9 53 -87 13 -87 13 -106 1 -75 -6 12 -18 22
-30 22 -18 0 -20 -6 -20 -54 0 -61 19 -88 45 -66 8 7 16 22 16 34 1 11 7 -17
15 -64 60 -400 -78 -651 -346 -626 -75 7 -164 35 -224 70 -59 35 -144 124
-196 204 l-45 69 -71 4 c-84 5 -130 31 -165 94 -32 55 -33 161 -3 202 37 50
66 43 137 -31 35 -36 67 -66 71 -66 36 0 259 197 347 305 58 72 78 79 157 51
27 -10 44 -11 48 -5 9 15 1 20 -65 38 l-60 16 36 55 c19 30 49 83 65 118 16
34 33 62 37 62 4 0 51 -50 104 -112z m-507 -954 c58 -56 163 -116 237 -134 26
-7 47 -16 47 -21 0 -34 -153 -340 -266 -530 -59 -99 -66 -108 -114 -128 -61
-26 -145 -29 -188 -7 -42 22 -79 72 -103 142 -32 89 -23 132 56 274 37 65 100
196 141 292 41 95 79 184 85 198 l11 25 21 -30 c11 -17 44 -53 73 -81z"/>
<path d="M3046 3864 c-11 -28 -6 -110 7 -128 7 -10 22 -17 33 -14 16 3 20 13
22 60 2 32 -2 67 -8 78 -13 24 -45 27 -54 4z"/>
<path d="M3326 3821 c-9 -13 11 -96 35 -150 18 -40 18 -51 8 -93 -7 -26 -10
-50 -7 -54 13 -12 26 7 38 55 11 46 10 56 -13 113 -14 35 -28 78 -32 95 -7 35
-20 49 -29 34z"/>
<path d="M2467 3693 c-4 -3 -7 -33 -7 -65 0 -68 21 -98 70 -98 28 0 30 2 30
40 0 30 -4 40 -16 40 -12 0 -15 -7 -12 -25 3 -15 1 -25 -6 -25 -25 0 -36 26
-36 82 0 54 -7 68 -23 51z"/>
<path d="M3095 3411 c-13 -22 66 -51 137 -51 47 0 108 22 108 39 0 18 -14 18
-55 0 -45 -20 -86 -17 -158 10 -15 6 -29 6 -32 2z"/>
</g>
</svg>
